<svg width="56" height="77" viewBox="0 0 56 77" fill="none" xmlns="http://www.w3.org/2000/svg">
<g clip-path="url(#clip0_416_1873)">
<path d="M14 35C17.866 35 21 31.866 21 28C21 24.134 17.866 21 14 21C10.134 21 7 24.134 7 28C7 31.866 10.134 35 14 35Z" stroke="#E58411" stroke-width="3.5" stroke-linecap="round" stroke-linejoin="round"/>
<path d="M38.5 50.75C42.366 50.75 45.5 47.616 45.5 43.75C45.5 39.884 42.366 36.75 38.5 36.75C34.634 36.75 31.5 39.884 31.5 43.75C31.5 47.616 34.634 50.75 38.5 50.75Z" stroke="#E58411" stroke-width="3.5" stroke-linecap="round" stroke-linejoin="round"/>
<path d="M38.5 19.25C42.366 19.25 45.5 16.116 45.5 12.25C45.5 8.38401 42.366 5.25 38.5 5.25C34.634 5.25 31.5 8.38401 31.5 12.25C31.5 16.116 34.634 19.25 38.5 19.25Z" stroke="#E58411" stroke-width="3.5" stroke-linecap="round" stroke-linejoin="round"/>
<path d="M32.616 16.0344L19.8848 24.2157" stroke="#E58411" stroke-width="3.5" stroke-linecap="round" stroke-linejoin="round"/>
<path d="M19.8848 31.7844L32.616 39.9657" stroke="#E58411" stroke-width="3.5" stroke-linecap="round" stroke-linejoin="round"/>
</g>
<path d="M8.855 73.0875C7.945 73.0875 7.08167 72.9358 6.265 72.6325C5.46 72.3175 4.83583 71.915 4.3925 71.425L4.795 70.76C5.215 71.1917 5.78667 71.5592 6.51 71.8625C7.245 72.1542 8.02083 72.3 8.8375 72.3C9.65417 72.3 10.3192 72.195 10.8325 71.985C11.3575 71.7633 11.7425 71.4717 11.9875 71.11C12.2442 70.7483 12.3725 70.3458 12.3725 69.9025C12.3725 69.3775 12.2325 68.9575 11.9525 68.6425C11.6725 68.3275 11.305 68.0767 10.85 67.89C10.395 67.7033 9.89917 67.5458 9.3625 67.4175C8.82583 67.2892 8.28333 67.155 7.735 67.015C7.18667 66.8633 6.685 66.6708 6.23 66.4375C5.775 66.2042 5.4075 65.8892 5.1275 65.4925C4.85917 65.0842 4.725 64.5592 4.725 63.9175C4.725 63.3342 4.87667 62.7975 5.18 62.3075C5.48333 61.8175 5.95583 61.4208 6.5975 61.1175C7.23917 60.8142 8.06167 60.6625 9.065 60.6625C9.74167 60.6625 10.4067 60.7617 11.06 60.96C11.725 61.1583 12.2908 61.4267 12.7575 61.765L12.425 62.4825C11.9117 62.1325 11.3575 61.8758 10.7625 61.7125C10.1792 61.5375 9.61333 61.45 9.065 61.45C8.28333 61.45 7.63583 61.5608 7.1225 61.7825C6.60917 62.0042 6.23 62.3017 5.985 62.675C5.74 63.0367 5.6175 63.445 5.6175 63.9C5.6175 64.425 5.75167 64.845 6.02 65.16C6.3 65.475 6.6675 65.7258 7.1225 65.9125C7.5775 66.0992 8.07917 66.2567 8.6275 66.385C9.17583 66.5133 9.71833 66.6533 10.255 66.805C10.7917 66.945 11.2875 67.1317 11.7425 67.365C12.1975 67.5983 12.565 67.9133 12.845 68.31C13.125 68.7067 13.265 69.22 13.265 69.85C13.265 70.4217 13.1075 70.9583 12.7925 71.46C12.4775 71.95 11.9933 72.3467 11.34 72.65C10.6983 72.9417 9.87 73.0875 8.855 73.0875ZM20.4816 63.795C21.2282 63.795 21.8757 63.9408 22.4241 64.2325C22.9841 64.5125 23.4157 64.9442 23.7191 65.5275C24.0341 66.0992 24.1916 66.8108 24.1916 67.6625V73H23.3166V67.7325C23.3166 66.7058 23.0541 65.9242 22.5291 65.3875C22.0157 64.8508 21.2924 64.5825 20.3591 64.5825C19.6474 64.5825 19.0291 64.7283 18.5041 65.02C17.9791 65.3117 17.5766 65.72 17.2966 66.245C17.0282 66.77 16.8941 67.4 16.8941 68.135V73H16.0191V60.015H16.8941V66.4025L16.7366 66.1225C17.0166 65.3992 17.4774 64.8333 18.1191 64.425C18.7607 64.005 19.5482 63.795 20.4816 63.795ZM33.5515 73V70.9175L33.5165 70.6025V67.1725C33.5165 66.3208 33.2831 65.6733 32.8165 65.23C32.3615 64.7867 31.6906 64.565 30.804 64.565C30.174 64.565 29.5848 64.6758 29.0365 64.8975C28.4998 65.1075 28.039 65.3817 27.654 65.72L27.2165 65.09C27.6715 64.6817 28.2198 64.3667 28.8615 64.145C29.5031 63.9117 30.174 63.795 30.874 63.795C32.0056 63.795 32.8748 64.0808 33.4815 64.6525C34.0881 65.2242 34.3915 66.0758 34.3915 67.2075V73H33.5515ZM30.2615 73.07C29.5848 73.07 28.9956 72.965 28.494 72.755C28.004 72.5333 27.6248 72.2242 27.3565 71.8275C27.0998 71.4308 26.9715 70.9758 26.9715 70.4625C26.9715 69.9958 27.0765 69.5758 27.2865 69.2025C27.5081 68.8175 27.8698 68.5083 28.3715 68.275C28.8731 68.03 29.544 67.9075 30.384 67.9075H33.744V68.59H30.4015C29.4565 68.59 28.7915 68.765 28.4065 69.115C28.0331 69.465 27.8465 69.9025 27.8465 70.4275C27.8465 71.0108 28.0681 71.4775 28.5115 71.8275C28.9548 72.1775 29.579 72.3525 30.384 72.3525C31.154 72.3525 31.8015 72.1775 32.3265 71.8275C32.8631 71.4775 33.2598 70.97 33.5165 70.305L33.7615 70.9C33.5165 71.565 33.0965 72.0958 32.5015 72.4925C31.9181 72.8775 31.1715 73.07 30.2615 73.07ZM37.9966 73V63.865H38.8366V66.3675L38.7491 66.0875C39.0058 65.3525 39.4374 64.7867 40.0441 64.39C40.6508 63.9933 41.4091 63.795 42.3191 63.795V64.6525C42.2841 64.6525 42.2491 64.6525 42.2141 64.6525C42.1791 64.6408 42.1441 64.635 42.1091 64.635C41.0941 64.635 40.3008 64.9558 39.7291 65.5975C39.1574 66.2275 38.8716 67.1083 38.8716 68.24V73H37.9966ZM48.3546 73.07C47.4329 73.07 46.6162 72.8717 45.9046 72.475C45.2046 72.0783 44.6504 71.53 44.2421 70.83C43.8454 70.13 43.6471 69.3308 43.6471 68.4325C43.6471 67.5225 43.8337 66.7233 44.2071 66.035C44.5921 65.335 45.1171 64.7867 45.7821 64.39C46.4471 63.9933 47.1937 63.795 48.0221 63.795C48.8504 63.795 49.5912 63.9875 50.2446 64.3725C50.9096 64.7575 51.4287 65.3 51.8021 66C52.1871 66.6883 52.3796 67.4875 52.3796 68.3975C52.3796 68.4325 52.3737 68.4733 52.3621 68.52C52.3621 68.555 52.3621 68.5958 52.3621 68.6425H44.2946V67.96H51.8896L51.5396 68.2925C51.5512 67.5808 51.3996 66.945 51.0846 66.385C50.7812 65.8133 50.3671 65.37 49.8421 65.055C49.3171 64.7283 48.7104 64.565 48.0221 64.565C47.3454 64.565 46.7387 64.7283 46.2021 65.055C45.6771 65.37 45.2629 65.8133 44.9596 66.385C44.6562 66.945 44.5046 67.5867 44.5046 68.31V68.4675C44.5046 69.2142 44.6679 69.8792 44.9946 70.4625C45.3329 71.0342 45.7937 71.4833 46.3771 71.81C46.9604 72.125 47.6254 72.2825 48.3721 72.2825C48.9554 72.2825 49.4979 72.1775 49.9996 71.9675C50.5129 71.7575 50.9446 71.4367 51.2946 71.005L51.8021 71.5825C51.4054 72.0725 50.9037 72.4458 50.2971 72.7025C49.7021 72.9475 49.0546 73.07 48.3546 73.07Z" fill="#E58411"/>
<defs>
<clipPath id="clip0_416_1873">
<rect width="56" height="56" fill="white"/>
</clipPath>
</defs>
</svg>
