<svg width="89" height="34" viewBox="0 0 89 34" fill="none" xmlns="http://www.w3.org/2000/svg">
<path d="M16.7266 22.1436L18.6297 11.945H21.6738L19.7693 22.1436H16.7266ZM30.7671 12.1648C30.1641 11.9582 29.2191 11.7365 28.0389 11.7365C25.0309 11.7365 22.9123 13.1197 22.8941 15.1022C22.8772 16.5677 24.4068 17.3852 25.5614 17.873C26.7464 18.373 27.1447 18.6918 27.139 19.1381C27.1314 19.8218 26.1928 20.134 25.3177 20.134C24.0994 20.134 23.4521 19.9794 22.4524 19.5988L22.06 19.4367L21.6329 21.7197C22.3439 22.0045 23.6586 22.251 25.0238 22.2639C28.2237 22.2639 30.301 20.8964 30.3246 18.7793C30.336 17.6191 29.525 16.7363 27.7687 16.0083C26.7048 15.5365 26.0532 15.2217 26.0601 14.744C26.0601 14.3201 26.6116 13.8668 27.8035 13.8668C28.7988 13.8526 29.52 14.0509 30.0818 14.2575L30.3546 14.3752L30.7671 12.1648ZM38.6006 11.9448H36.2484C35.5198 11.9448 34.9744 12.1264 34.6545 12.7906L30.1336 22.1369H33.3301C33.3301 22.1369 33.8526 20.8803 33.9708 20.6043C34.3202 20.6043 37.4255 20.6087 37.8694 20.6087C37.9604 20.9657 38.2397 22.1369 38.2397 22.1369H41.0644L38.6006 11.9445V11.9448ZM34.8686 18.5305C35.1204 17.9429 36.0814 15.6795 36.0814 15.6795C36.0635 15.7066 36.3314 15.089 36.485 14.7061L36.6907 15.5854C36.6907 15.5854 37.2736 18.0199 37.3955 18.5303H34.8686V18.5305ZM14.1425 11.9448L11.1622 18.8999L10.8448 17.4865C10.2899 15.8572 8.56135 14.092 6.62891 13.2082L9.35399 22.1274L12.5747 22.1241L17.3671 11.9447L14.1425 11.9447" fill="#0E4595"/>
<path d="M8.38111 11.9445H3.4725L3.43359 12.1567C7.25244 13.0008 9.77922 15.0409 10.8284 17.4925L9.76102 12.8058C9.57681 12.16 9.04237 11.9672 8.38122 11.9447" fill="#F2AE14"/>
<g clip-path="url(#clip0_103_183)">
<path d="M61.0011 29.5735V27.8971C61.0011 27.2548 60.5886 26.8357 59.8853 26.8357C59.5289 26.8357 59.1539 26.9515 58.8818 27.3082C58.6752 27.0049 58.385 26.8357 57.9445 26.8357C57.6537 26.8357 57.3541 26.9159 57.1195 27.2281V26.8891H56.5098V29.5735H57.1288V28.093C57.1288 27.6205 57.3916 27.3973 57.8041 27.3973C58.2166 27.3973 58.4232 27.6472 58.4232 28.093V29.5735H59.0422V28.093C59.0422 27.6205 59.3331 27.3973 59.7175 27.3973C60.13 27.3973 60.3365 27.6472 60.3365 28.093V29.5735H61.0011ZM70.1422 26.8891H69.1387V26.0777H68.5196V26.8891H67.9573V27.424H68.5196V28.6546C68.5196 29.2702 68.7823 29.6359 69.485 29.6359C69.7477 29.6359 70.0472 29.5557 70.2445 29.4393L70.0666 28.9401C69.8888 29.0559 69.6822 29.0826 69.5418 29.0826C69.251 29.0826 69.1293 28.9134 69.1293 28.6368V27.4329H70.1328V26.8891H70.1422ZM75.3642 26.8357C75.0079 26.8357 74.7739 27.0049 74.6328 27.2281V26.8891H74.0137V29.5735H74.6328V28.0663C74.6328 27.6205 74.8394 27.3706 75.2231 27.3706C75.3448 27.3706 75.4859 27.3973 75.6076 27.424L75.7854 26.8624C75.6644 26.8357 75.4859 26.8357 75.3642 26.8357ZM67.4606 27.1124C67.1698 26.9159 66.7573 26.8357 66.3167 26.8357C65.6134 26.8357 65.1448 27.1747 65.1448 27.7006C65.1448 28.1464 65.5011 28.3964 66.1101 28.4854L66.401 28.5121C66.7199 28.5655 66.8977 28.6546 66.8977 28.7888C66.8977 28.9853 66.663 29.1277 66.2505 29.1277C65.838 29.1277 65.5191 28.9853 65.3132 28.8511L65.0224 29.2969C65.3413 29.5201 65.7819 29.6359 66.2225 29.6359C67.0474 29.6359 67.5161 29.2702 67.5161 28.7709C67.5161 28.2984 67.1317 28.0485 66.5507 27.9595L66.2599 27.9328C65.9972 27.906 65.7912 27.8526 65.7912 27.6828C65.7912 27.4863 65.9978 27.3795 66.3161 27.3795C66.6724 27.3795 67.0194 27.5219 67.1972 27.6027L67.4606 27.1124ZM83.8581 26.8357C83.5018 26.8357 83.2678 27.0049 83.1267 27.2281V26.8891H82.5077V29.5735H83.1267V28.0663C83.1267 27.6205 83.3333 27.3706 83.7171 27.3706C83.8387 27.3706 83.9798 27.3973 84.1015 27.424L84.2793 26.8624C84.149 26.8357 83.9705 26.8357 83.8581 26.8357ZM75.9826 28.2272C75.9826 29.0387 76.5729 29.6276 77.4828 29.6276C77.8953 29.6276 78.1862 29.5475 78.4863 29.3242L78.1955 28.8517C77.9609 29.0209 77.7269 29.1016 77.4641 29.1016C76.9674 29.1016 76.6111 28.7627 76.6111 28.2367C76.6111 27.7375 76.9674 27.3985 77.4641 27.3718C77.7269 27.3718 77.9609 27.452 78.1955 27.6218L78.4863 27.1493C78.1955 26.926 77.896 26.8459 77.4828 26.8459C76.5736 26.8357 75.9826 27.4246 75.9826 28.2272ZM81.6833 28.2272V26.8891H81.0643V27.2281C80.8577 26.9782 80.5675 26.8357 80.1831 26.8357C79.3862 26.8357 78.7765 27.4246 78.7765 28.2361C78.7765 29.0476 79.3956 29.6365 80.1831 29.6365C80.5956 29.6365 80.8864 29.494 81.0643 29.2441V29.5831H81.6833V28.2272ZM79.4236 28.2272C79.4236 27.7547 79.7425 27.3623 80.2767 27.3623C80.7734 27.3623 81.1298 27.728 81.1298 28.2272C81.1298 28.6997 80.7734 29.0921 80.2767 29.0921C79.7425 29.0654 79.4236 28.7086 79.4236 28.2272ZM72.0449 26.8357C71.2199 26.8357 70.6382 27.3973 70.6382 28.2361C70.6382 29.0743 71.2286 29.6365 72.0823 29.6365C72.4948 29.6365 72.9073 29.5207 73.2262 29.2708L72.9354 28.8517C72.7007 29.0209 72.4106 29.1284 72.1104 29.1284C71.726 29.1284 71.3509 28.9592 71.2573 28.486H73.3385V28.2628C73.3673 27.3884 72.8418 26.8357 72.0449 26.8357ZM72.0449 27.335C72.4293 27.335 72.692 27.5582 72.7482 27.9773H71.276C71.3422 27.6205 71.6043 27.335 72.0449 27.335ZM87.3553 28.2272V25.8284H86.7362V27.2287C86.5297 26.9788 86.2395 26.8364 85.8551 26.8364C85.0582 26.8364 84.4485 27.4253 84.4485 28.2367C84.4485 29.0482 85.0675 29.6371 85.8551 29.6371C86.2676 29.6371 86.5584 29.4947 86.7362 29.2447V29.5837H87.3553V28.2272ZM85.0863 28.2272C85.0863 27.7547 85.4052 27.3623 85.9393 27.3623C86.4361 27.3623 86.7924 27.728 86.7924 28.2272C86.7924 28.6997 86.4361 29.0921 85.9393 29.0921C85.4145 29.0654 85.0863 28.7086 85.0863 28.2272ZM64.4695 28.2272V26.8891H63.8504V27.2281C63.6439 26.9782 63.3537 26.8357 62.9693 26.8357C62.1724 26.8357 61.5627 27.4246 61.5627 28.2361C61.5627 29.0476 62.1817 29.6365 62.9693 29.6365C63.3818 29.6365 63.6726 29.494 63.8504 29.2441V29.5831H64.4695V28.2272ZM62.1824 28.2272C62.1824 27.7547 62.5013 27.3623 63.0355 27.3623C63.5322 27.3623 63.8886 27.728 63.8886 28.2272C63.8886 28.6997 63.5322 29.0921 63.0355 29.0921C62.5006 29.0654 62.1824 28.7086 62.1824 28.2272Z" fill="black"/>
<path d="M76.5171 6.51941H67.2637V22.3319H76.5171V6.51941Z" fill="#FF5F00"/>
<path d="M67.8445 14.4301C67.8445 11.2198 69.4289 8.3656 71.8665 6.51941C70.0754 5.18136 67.8164 4.36987 65.3414 4.36987C59.5003 4.36987 54.7656 8.86483 54.7656 14.4301C54.7656 19.9865 59.4909 24.4903 65.3414 24.4903C67.807 24.4903 70.0667 23.6788 71.8665 22.3408C69.4289 20.5213 67.8445 17.641 67.8445 14.4301Z" fill="#EB001B"/>
<path d="M88.9954 14.4301C88.9954 19.9865 84.2701 24.4903 78.4196 24.4903C75.954 24.4903 73.6943 23.6788 71.8945 22.3408C74.3601 20.4946 75.9165 17.65 75.9165 14.4301C75.9165 11.2198 74.3321 8.3656 71.8945 6.51941C73.6856 5.18136 75.9446 4.36987 78.4196 4.36987C84.2701 4.37051 88.9954 8.89217 88.9954 14.4301Z" fill="#F79E1B"/>
</g>
<defs>
<clipPath id="clip0_103_183">
<rect width="34.2298" height="32.5611" fill="white" transform="translate(54.7695 0.719482)"/>
</clipPath>
</defs>
</svg>
